<?xml version="1.0" encoding="UTF-8"?>
<svg width="10px" height="7px" viewBox="0 0 10 7" version="1.1" xmlns="http://www.w3.org/2000/svg" xmlns:xlink="http://www.w3.org/1999/xlink">
    <!-- Generator: sketchtool 42 (36781) - http://www.bohemiancoding.com/sketch -->
    <title>17C92F6F-C801-4D55-9050-168AE0D92D91</title>
    <desc>Created with sketchtool.</desc>
    <defs></defs>
    <g id="Page-1" stroke="none" stroke-width="1" fill="none" fill-rule="evenodd">
        <g id="Generic-Page" transform="translate(-1203.000000, -80.000000)" fill="#606060">
            <g id="Search-Box" transform="translate(132.000000, 64.000000)">
                <path d="M1081,17.0056582 C1081,16.9225173 1080.9596,16.8301386 1080.899,16.7689376 L1080.3985,16.2527714 C1080.3379,16.1915704 1080.24812,16.15 1080.16844,16.15 C1080.08764,16.15 1079.99787,16.1915704 1079.93727,16.2527714 L1075.99944,20.3047344 L1072.06161,16.2527714 C1072.00213,16.1915704 1071.91123,16.15 1071.83156,16.15 C1071.74178,16.15 1071.66098,16.1915704 1071.6015,16.2527714 L1071.09988,16.7689376 C1071.0404,16.8301386 1071,16.9225173 1071,17.0056582 C1071,17.0876443 1071.0404,17.1811778 1071.09988,17.2423788 L1075.76939,22.0472286 C1075.82999,22.1095843 1075.91976,22.15 1075.99944,22.15 C1076.08024,22.15 1076.17001,22.1095843 1076.23061,22.0472286 L1080.899,17.2423788 C1080.9596,17.1811778 1081,17.0876443 1081,17.0056582 L1081,17.0056582 Z" id="arrowDown"></path>
            </g>
        </g>
    </g>
</svg>