<?xml version="1.0" encoding="UTF-8"?>
<svg width="18px" height="18px" viewBox="0 0 18 18" version="1.1" xmlns="http://www.w3.org/2000/svg" xmlns:xlink="http://www.w3.org/1999/xlink">
    <!-- Generator: sketchtool 42 (36781) - http://www.bohemiancoding.com/sketch -->
    <title>8ED8C334-6666-49F3-BD88-65CF5D31A7EF</title>
    <desc>Created with sketchtool.</desc>
    <defs></defs>
    <g id="Page-1" stroke="none" stroke-width="1" fill="none" fill-rule="evenodd">
        <g id="Global01" transform="translate(-220.000000, -397.000000)" fill="#FFFFFF">
            <g id="Search-Filter" transform="translate(130.000000, 308.000000)">
                <g id="FilterImport" transform="translate(0.000000, 78.000000)">
                    <g id="Filter">
                        <g id="FilterBy">
                            <path d="M94.6956522,21.1746957 C94.6956522,20.7426957 94.3450435,20.3928696 93.9130435,20.3928696 L91.5652174,20.3928696 C91.1324348,20.3928696 90.7826087,20.7426957 90.7826087,21.1746957 L90.7826087,23.5225217 C90.7826087,23.9545217 91.1324348,24.3051304 91.5652174,24.3051304 L93.9130435,24.3051304 C94.3450435,24.3051304 94.6956522,23.9545217 94.6956522,23.5225217 L94.6956522,21.1746957 Z M94.226087,25.0869565 L93.1304348,25.0869565 L93.1304348,28.2173913 L92.3478261,28.2173913 L92.3478261,25.0869565 L91.2521739,25.0869565 C90.5603478,25.0869565 90,24.5266087 90,23.8347826 L90,20.8608696 C90,20.1698261 90.5603478,19.6094783 91.2521739,19.6094783 L92.3478261,19.6094783 L92.3478261,11 L93.1304348,11 L93.1304348,19.6094783 L94.226087,19.6094783 C94.9171304,19.6094783 95.4774783,20.1698261 95.4774783,20.8608696 L95.4774783,23.8347826 C95.4774783,24.5266087 94.9171304,25.0869565 94.226087,25.0869565 L94.226087,25.0869565 Z M100.956522,14.1312174 C100.956522,13.6992174 100.605913,13.3493913 100.173913,13.3493913 L97.826087,13.3493913 C97.3933043,13.3493913 97.0434783,13.6992174 97.0434783,14.1312174 L97.0434783,16.4790435 C97.0434783,16.9110435 97.3933043,17.2616522 97.826087,17.2616522 L100.173913,17.2616522 C100.605913,17.2616522 100.956522,16.9110435 100.956522,16.4790435 L100.956522,14.1312174 Z M100.486957,18.0434783 L99.3913043,18.0434783 L99.3913043,28.2173913 L98.6086957,28.2173913 L98.6086957,18.0434783 L97.5130435,18.0434783 C96.8212174,18.0434783 96.2608696,17.4831304 96.2608696,16.7913043 L96.2608696,13.8173913 C96.2608696,13.1255652 96.8212174,12.566 97.5130435,12.566 L98.6086957,12.566 L98.6086957,11 L99.3913043,11 L99.3913043,12.566 L100.486957,12.566 C101.178,12.566 101.738348,13.1255652 101.738348,13.8173913 L101.738348,16.7913043 C101.738348,17.4831304 101.178,18.0434783 100.486957,18.0434783 L100.486957,18.0434783 Z M107.217391,23.5225217 C107.217391,23.0905217 106.866783,22.739913 106.434783,22.739913 L104.086957,22.739913 C103.654174,22.739913 103.304348,23.0905217 103.304348,23.5225217 L103.304348,25.8703478 C103.304348,26.3031304 103.654174,26.6529565 104.086957,26.6529565 L106.434783,26.6529565 C106.866783,26.6529565 107.217391,26.3031304 107.217391,25.8703478 L107.217391,23.5225217 Z M106.747826,27.4347826 L105.652174,27.4347826 L105.652174,28.2173913 L104.868783,28.2173913 L104.868783,27.4347826 L103.773913,27.4347826 C103.082087,27.4347826 102.521739,26.8744348 102.521739,26.1826087 L102.521739,23.2086957 C102.521739,22.5168696 103.082087,21.9565217 103.773913,21.9565217 L104.868783,21.9565217 L104.868783,11 L105.652174,11 L105.652174,21.9565217 L106.747826,21.9565217 C107.43887,21.9565217 108,22.5168696 108,23.2086957 L108,26.1826087 C108,26.8744348 107.43887,27.4347826 106.747826,27.4347826 L106.747826,27.4347826 Z" id="IconFilter"></path>
                        </g>
                    </g>
                </g>
            </g>
        </g>
    </g>
</svg>