<?xml version="1.0" encoding="UTF-8"?>
<svg width="14px" height="17px" viewBox="0 0 14 17" version="1.1" xmlns="http://www.w3.org/2000/svg" xmlns:xlink="http://www.w3.org/1999/xlink">
    <!-- Generator: sketchtool 42 (36781) - http://www.bohemiancoding.com/sketch -->
    <title>54F3944C-990F-40BF-809E-ED968E4F6291</title>
    <desc>Created with sketchtool.</desc>
    <defs></defs>
    <g id="Page-1" stroke="none" stroke-width="1" fill="none" fill-rule="evenodd">
        <g id="Search02" transform="translate(-1093.000000, -499.000000)" fill="#FFFFFF">
            <g id="DOWNLOAD" transform="translate(986.000000, 487.000000)">
                <path d="M114.240967,25.2310333 C114.237633,25.2343667 114.2363,25.2390333 114.232967,25.2423667 C114.152967,25.3223667 114.047633,25.3390333 113.9443,25.3237 C113.942967,25.3237 113.9423,25.3243667 113.941633,25.3237 C113.885633,25.3150333 113.835633,25.2943667 113.7923,25.2617 C113.7783,25.2510333 113.758967,25.2557 113.7463,25.2423667 C113.743633,25.2403667 113.743633,25.2363667 113.740967,25.2337 L108.4243,19.2617 C108.290967,19.1283667 108.290967,18.9117 108.4243,18.7783667 C108.5583,18.6450333 108.774967,18.6450333 108.9083,18.7783667 L113.655633,24.1110333 L113.655633,12.3337 C113.655633,12.1490333 113.804967,11.9997 113.989633,11.9997 C114.1743,11.9997 114.323633,12.1490333 114.323633,12.3337 L114.323633,24.1117 L119.070967,18.7783667 C119.2043,18.6450333 119.420967,18.6450333 119.554967,18.7783667 C119.6883,18.9117 119.6883,19.1283667 119.554967,19.2617 L114.240967,25.2310333 Z M107.0003,28.6997 L121.0003,28.6997 L121.0003,27.9997 L107.0003,27.9997 L107.0003,28.6997 Z" id="iconDownload"></path>
            </g>
        </g>
    </g>
</svg>
