<?xml version="1.0" encoding="UTF-8"?>
<svg width="18px" height="22px" viewBox="0 0 18 22" version="1.1" xmlns="http://www.w3.org/2000/svg" xmlns:xlink="http://www.w3.org/1999/xlink">
    <!-- Generator: sketchtool 42 (36781) - http://www.bohemiancoding.com/sketch -->
    <title>C44D9D2D-2ECB-4AFE-9E1B-FDADE4F4BC46</title>
    <desc>Created with sketchtool.</desc>
    <defs></defs>
    <g id="Page-1" stroke="none" stroke-width="1" fill="none" fill-rule="evenodd">
        <g id="Global01" transform="translate(-1182.000000, -79.000000)" fill="#FFFFFF">
            <g id="Title-Divider" transform="translate(1.000000, 71.000000)">
                <g id="Import" transform="translate(1165.000000, 0.000000)">
                    <g id="Page-1">
                        <g id="Import">
                            <path d="M25.4285714,21.7134286 L24.5714286,21.7134286 L24.5714286,18.2857143 L21.1428571,18.2857143 L21.1428571,17.4285714 L24.5714286,17.4285714 L24.5714286,13.9991429 L25.4285714,13.9991429 L25.4285714,17.4285714 L28.8571429,17.4285714 L28.8571429,18.2857143 L25.4285714,18.2857143 L25.4285714,21.7134286 Z M33.1428571,8.85714286 L16.8571429,8.85714286 L16.8571429,28.5722857 L27.622,28.5722857 L27.6237143,28.5705714 L27.1402857,28.5705714 L27.1402857,23.4285714 L27.1385714,23.4285714 L27.1385714,22.5714286 L33.136,22.5714286 L33.136,23.0557143 L33.1428571,23.0497143 L33.1428571,8.85714286 Z M32.764,23.4285714 L28.0008571,23.4285714 L28.0008571,28.1925714 L32.764,23.4285714 Z M27.9768571,29.4294286 L16.6591429,29.4294286 C16.2957143,29.4294286 16,29.1294286 16,28.76 L16,8.67114286 C16,8.30085714 16.2957143,8 16.6591429,8 L33.3408571,8 C33.7042857,8 34,8.30085714 34,8.67114286 L34,23.4037143 L27.9768571,29.4294286 Z" id="iconImport"></path>
                        </g>
                    </g>
                </g>
            </g>
        </g>
    </g>
</svg>