<svg xmlns="http://www.w3.org/2000/svg" xmlns:xlink="http://www.w3.org/1999/xlink" viewBox="0 0 64 64" version="1.1" width="50" height="50">
<g id="surface1">
<path style=" " d="M 32.132813 2 C 31.160156 1.992188 30.175781 2.035156 29.191406 2.128906 C 17.21875 3.246094 7.539063 11.945313 6.171875 22.808594 C 5.414063 28.863281 7.226563 36.800781 10.488281 41.683594 C 11.230469 42.789063 11.488281 44.125 11.21875 45.4375 L 11.105469 46 C 10.835938 47.308594 11.09375 48.648438 11.832031 49.761719 C 12.570313 50.875 13.699219 51.636719 15.007813 51.902344 L 20.003906 52.917969 L 19.417969 57.082031 C 19.203125 58.601563 20.164063 60.03125 21.652344 60.410156 L 23.855469 60.96875 C 26.507813 61.640625 29.230469 61.972656 31.957031 61.972656 C 34.710938 61.972656 37.464844 61.632813 40.140625 60.949219 L 42.234375 60.410156 C 43.714844 60.03125 44.671875 58.605469 44.457031 57.089844 L 43.871094 52.917969 L 48.867188 51.902344 C 50.175781 51.636719 51.304688 50.875 52.042969 49.761719 C 52.777344 48.648438 53.035156 47.308594 52.769531 46 L 52.648438 45.40625 C 52.386719 44.125 52.652344 42.78125 53.402344 41.617188 C 56.476563 36.84375 57.875 29.949219 57.875 25.5625 C 57.875 19.28125 55.1875 13.371094 50.300781 8.921875 C 45.449219 4.5 38.953125 2.050781 32.132813 2 Z M 31.917969 4 C 38.316406 4 44.417969 6.269531 48.953125 10.402344 C 53.417969 14.464844 55.875 19.851563 55.875 25.5625 C 55.875 29.796875 54.449219 36.300781 51.71875 40.535156 C 50.6875 42.140625 50.320313 44.011719 50.6875 45.8125 L 50.8125 46.402344 C 50.972656 47.1875 50.816406 47.988281 50.375 48.65625 C 49.929688 49.324219 49.253906 49.78125 48.46875 49.941406 L 43.472656 50.957031 C 42.4375 51.167969 41.742188 52.148438 41.890625 53.195313 L 42.480469 57.363281 C 42.550781 57.871094 42.230469 58.347656 41.734375 58.472656 L 39.644531 59.011719 C 34.644531 60.289063 29.355469 60.296875 24.347656 59.03125 L 22.140625 58.46875 C 21.648438 58.34375 21.324219 57.867188 21.394531 57.359375 L 21.984375 53.195313 C 22.132813 52.148438 21.4375 51.167969 20.402344 50.957031 L 15.40625 49.941406 C 14.617188 49.78125 13.945313 49.324219 13.5 48.65625 C 13.058594 47.988281 12.902344 47.183594 13.0625 46.402344 L 13.179688 45.835938 C 13.558594 43.996094 13.191406 42.125 12.152344 40.570313 C 9.128906 36.050781 7.453125 28.683594 8.15625 23.058594 C 9.40625 13.117188 18.332031 5.152344 29.378906 4.117188 C 30.230469 4.039063 31.074219 4 31.917969 4 Z M 31.640625 7 C 31.003906 7.011719 30.359375 7.042969 29.71875 7.097656 C 26.125 7.410156 22.65625 8.535156 19.6875 10.351563 C 19.214844 10.640625 19.066406 11.253906 19.355469 11.726563 C 19.542969 12.035156 19.871094 12.203125 20.207031 12.203125 C 20.386719 12.203125 20.566406 12.15625 20.730469 12.058594 C 23.4375 10.402344 26.605469 9.375 29.890625 9.089844 C 30.484375 9.039063 31.078125 9.007813 31.667969 9 C 32.21875 8.996094 32.660156 8.542969 32.65625 7.992188 C 32.648438 7.4375 32.226563 6.992188 31.640625 7 Z M 36.769531 7.550781 C 36.386719 7.621094 36.066406 7.917969 35.980469 8.320313 C 35.863281 8.863281 36.203125 9.394531 36.746094 9.511719 C 37.832031 9.746094 38.902344 10.066406 39.925781 10.464844 C 40.042969 10.507813 40.164063 10.53125 40.285156 10.53125 C 40.6875 10.53125 41.066406 10.285156 41.21875 9.890625 C 41.417969 9.375 41.160156 8.796875 40.644531 8.597656 C 39.527344 8.164063 38.359375 7.816406 37.171875 7.554688 C 37.035156 7.527344 36.898438 7.527344 36.769531 7.550781 Z M 20.421875 29.625 C 19.414063 29.667969 18.441406 30.011719 17.613281 30.640625 C 16.511719 31.476563 15.820313 32.695313 15.667969 34.066406 L 15.425781 36.238281 C 15.203125 38.21875 16.175781 40.136719 17.90625 41.128906 L 20.1875 42.441406 C 20.957031 42.882813 21.8125 43.109375 22.675781 43.109375 C 23.257813 43.109375 23.84375 43.003906 24.40625 42.796875 C 25.800781 42.285156 26.886719 41.1875 27.386719 39.792969 L 28.449219 36.816406 C 28.953125 35.414063 28.808594 33.875 28.050781 32.59375 C 27.292969 31.3125 26.019531 30.4375 24.546875 30.199219 L 21.441406 29.6875 C 21.101563 29.632813 20.761719 29.613281 20.421875 29.625 Z M 43.488281 29.625 C 43.152344 29.613281 42.8125 29.632813 42.472656 29.6875 L 39.363281 30.195313 C 37.894531 30.433594 36.621094 31.308594 35.863281 32.59375 C 35.105469 33.875 34.960938 35.414063 35.464844 36.816406 L 36.53125 39.792969 C 37.03125 41.191406 38.117188 42.285156 39.511719 42.796875 C 40.070313 43.003906 40.65625 43.109375 41.238281 43.109375 C 42.101563 43.109375 42.957031 42.882813 43.726563 42.441406 L 46.011719 41.128906 C 47.734375 40.136719 48.710938 38.21875 48.488281 36.238281 L 48.246094 34.070313 C 48.09375 32.695313 47.402344 31.476563 46.296875 30.640625 C 45.472656 30.011719 44.5 29.667969 43.488281 29.625 Z M 20.628906 31.625 C 20.792969 31.625 20.953125 31.636719 21.121094 31.664063 L 24.226563 32.171875 C 25.109375 32.316406 25.875 32.839844 26.328125 33.609375 C 26.78125 34.378906 26.871094 35.300781 26.566406 36.140625 L 25.503906 39.117188 C 25.203125 39.957031 24.550781 40.613281 23.714844 40.921875 C 22.878906 41.230469 21.957031 41.152344 21.183594 40.707031 L 18.902344 39.394531 C 17.863281 38.800781 17.28125 37.648438 17.410156 36.464844 L 17.65625 34.292969 C 17.75 33.46875 18.164063 32.738281 18.824219 32.234375 C 19.351563 31.832031 19.980469 31.625 20.628906 31.625 Z M 43.40625 31.625 C 44.011719 31.648438 44.597656 31.859375 45.09375 32.234375 C 45.753906 32.734375 46.167969 33.464844 46.261719 34.292969 L 46.5 36.460938 C 46.632813 37.648438 46.046875 38.800781 45.015625 39.394531 L 42.734375 40.707031 C 41.960938 41.148438 41.039063 41.230469 40.203125 40.921875 C 39.363281 40.613281 38.710938 39.957031 38.410156 39.117188 L 37.347656 36.140625 C 37.046875 35.300781 37.132813 34.378906 37.589844 33.609375 C 38.042969 32.835938 38.808594 32.316406 39.6875 32.171875 L 42.796875 31.660156 C 43 31.628906 43.203125 31.617188 43.40625 31.625 Z M 32 40 C 30.988281 40 30.066406 40.636719 29.714844 41.582031 L 28.078125 45.945313 C 27.730469 46.867188 27.859375 47.898438 28.421875 48.707031 C 28.980469 49.515625 29.902344 50 30.886719 50 L 33.113281 50 C 34.097656 50 35.019531 49.515625 35.578125 48.707031 C 36.140625 47.898438 36.269531 46.867188 35.921875 45.949219 L 34.285156 41.582031 C 33.933594 40.636719 33.011719 40 32 40 Z M 32 42 C 32.183594 42 32.351563 42.113281 32.414063 42.285156 L 34.050781 46.648438 C 34.167969 46.960938 34.125 47.296875 33.9375 47.566406 C 33.746094 47.84375 33.445313 48 33.113281 48 L 30.886719 48 C 30.554688 48 30.253906 47.84375 30.0625 47.566406 C 29.875 47.296875 29.832031 46.960938 29.949219 46.648438 L 31.585938 42.285156 C 31.648438 42.113281 31.816406 42 32 42 Z M 24 54.011719 C 23.449219 54.011719 23 54.457031 23 55.011719 L 23 57.011719 C 23 57.5625 23.449219 58.011719 24 58.011719 C 24.550781 58.011719 25 57.5625 25 57.011719 L 25 55.011719 C 25 54.457031 24.550781 54.011719 24 54.011719 Z M 29 54.011719 C 28.449219 54.011719 28 54.457031 28 55.011719 L 28 57.011719 C 28 57.5625 28.449219 58.011719 29 58.011719 C 29.550781 58.011719 30 57.5625 30 57.011719 L 30 55.011719 C 30 54.457031 29.550781 54.011719 29 54.011719 Z M 35 54.011719 C 34.449219 54.011719 34 54.457031 34 55.011719 L 34 57.011719 C 34 57.5625 34.449219 58.011719 35 58.011719 C 35.550781 58.011719 36 57.5625 36 57.011719 L 36 55.011719 C 36 54.457031 35.550781 54.011719 35 54.011719 Z M 40 54.011719 C 39.449219 54.011719 39 54.457031 39 55.011719 L 39 57.011719 C 39 57.5625 39.449219 58.011719 40 58.011719 C 40.550781 58.011719 41 57.5625 41 57.011719 L 41 55.011719 C 41 54.457031 40.550781 54.011719 40 54.011719 Z "/>
</g>
</svg>
