<?xml version="1.0" encoding="UTF-8"?>
<svg width="22px" height="21px" viewBox="0 0 22 21" version="1.1" xmlns="http://www.w3.org/2000/svg" xmlns:xlink="http://www.w3.org/1999/xlink">
    <!-- Generator: sketchtool 42 (36781) - http://www.bohemiancoding.com/sketch -->
    <title>220E6E75-CA8E-4034-91AD-01742B45EF7A</title>
    <desc>Created with sketchtool.</desc>
    <defs></defs>
    <g id="Page-1" stroke="none" stroke-width="1" fill="none" fill-rule="evenodd">
        <g id="Generic-Page" transform="translate(-656.000000, -2408.000000)" fill="#2F313F">
            <g id="Logout-Overlay_hover" transform="translate(630.000000, 2257.000000)">
                <g id="ui-dropdown-item">
                    <g id="Group-20" transform="translate(0.000000, 61.000000)">
                        <path d="M37.44088,91.76176 C37.44088,91.27512 37.04664,90.88088 36.56,90.88088 L27.76088,90.88088 C27.27424,90.88088 26.88088,91.27512 26.88088,91.76176 L26.88088,108.48176 C26.88088,108.96752 27.27424,109.36176 27.76088,109.36176 L36.56,109.36176 C37.04664,109.36176 37.44088,108.96752 37.44088,108.48176 L37.44088,105.84 L38.32352,105.84 L38.32352,108.89096 C38.32352,109.63632 37.71104,110.24088 36.95424,110.24088 L27.37016,110.24088 C26.61336,110.24088 26,109.63632 26,108.89096 L26,91.34904 C26,90.60456 26.61336,90 27.37016,90 L36.95424,90 C37.71104,90 38.32352,90.60456 38.32352,91.34904 L38.32352,94.4 L37.44088,94.4 L37.44088,91.76176 Z M48.00088,100.12176 C48.00088,100.19128 47.98152,100.25376 47.95336,100.31184 C47.93488,100.3752 47.90232,100.43416 47.85128,100.4852 L42.61616,105.7212 C42.43488,105.9016 42.14272,105.9016 41.96144,105.7212 C41.78104,105.53992 41.78104,105.24776 41.96144,105.0656 L46.46616,100.56176 L29.96088,100.56176 C29.718,100.56176 29.52088,100.36464 29.52088,100.12176 C29.52088,99.878 29.718,99.68176 29.96088,99.68176 L46.46616,99.68176 L41.96144,95.17616 C41.78104,94.99576 41.78104,94.70272 41.96144,94.52232 C42.14272,94.34192 42.43488,94.34192 42.61616,94.52232 L47.85128,99.75744 C47.90232,99.80848 47.93488,99.86744 47.95336,99.93168 C47.98152,99.98976 48.00088,100.05224 48.00088,100.12176 L48.00088,100.12176 Z" id="Fill-1"></path>
                    </g>
                </g>
            </g>
        </g>
    </g>
</svg>