<?xml version="1.0" encoding="UTF-8"?>
<svg width="20px" height="20px" viewBox="0 0 20 20" version="1.1" xmlns="http://www.w3.org/2000/svg" xmlns:xlink="http://www.w3.org/1999/xlink">
    <!-- Generator: sketchtool 42 (36781) - http://www.bohemiancoding.com/sketch -->
    <title>04802ECA-B247-42F0-A268-010095E31138</title>
    <desc>Created with sketchtool.</desc>
    <defs></defs>
    <g id="Page-1" stroke="none" stroke-width="1" fill="none" fill-rule="evenodd">
        <g id="Generic-Page" transform="translate(-907.000000, -968.000000)" fill="#000000">
            <path d="M917.69165,978 L926.855219,987.163343 C927.04826,987.35638 927.04826,987.663663 926.855219,987.8567 C926.664147,988.047767 926.354886,988.047767 926.163815,987.8567 L917.000246,978.691387 L907.834708,987.8567 C907.643636,988.047767 907.334376,988.047767 907.143304,987.8567 C906.952232,987.663663 906.952232,987.35638 907.143304,987.163343 L916.308842,978 L907.143304,968.836657 C906.952232,968.64362 906.952232,968.334367 907.143304,968.1433 C907.334376,967.952233 907.643636,967.952233 907.834708,968.1433 L917.000246,977.308613 L926.163815,968.1433 C926.354886,967.952233 926.664147,967.952233 926.855219,968.1433 C927.04826,968.334367 927.04826,968.64362 926.855219,968.836657 L917.69165,978 Z" id="Searchclose"></path>
        </g>
    </g>
</svg>