<?xml version="1.0" encoding="UTF-8"?>
<svg width="15px" height="18px" viewBox="0 0 15 18" version="1.1" xmlns="http://www.w3.org/2000/svg" xmlns:xlink="http://www.w3.org/1999/xlink">
    <!-- Generator: sketchtool 42 (36781) - http://www.bohemiancoding.com/sketch -->
    <title>35479894-B6A5-4960-A0D3-922F3629381A</title>
    <desc>Created with sketchtool.</desc>
    <defs></defs>
    <g id="Page-1" stroke="none" stroke-width="1" fill="none" fill-rule="evenodd">
        <g id="Generic-Page" transform="translate(-213.000000, -2273.000000)" fill="#FFFFFF">
            <g id="Group" transform="translate(80.000000, 2264.000000)">
                <g id="Group-19" transform="translate(122.000000, 0.000000)">
                    <g id="Userprofile">
                        <g id="Page-1" transform="translate(10.956522, 9.391304)">
                            <path d="M11.7389739,5.08656522 C11.7389739,2.70978261 9.8121913,0.781434783 7.43462609,0.781434783 C5.05706087,0.781434783 3.13027826,2.70978261 3.13027826,5.08656522 C3.13027826,7.46413043 5.05706087,9.39091304 7.43462609,9.39091304 C9.8121913,9.39091304 11.7389739,7.46413043 11.7389739,5.08656522 L11.7389739,5.08656522 Z M14.0672348,17.217 C14.0750609,17.087087 14.0868,16.9579565 14.0868,16.8264783 C14.0868,13.1521304 11.1081913,10.1735217 7.43462609,10.1735217 C3.76106087,10.1735217 0.782452174,13.1521304 0.782452174,16.8264783 C0.782452174,16.9579565 0.794973913,17.087087 0.802017391,17.217 L0.0194086957,17.217 C0.0131478261,17.0863043 -0.000156521739,16.9579565 -0.000156521739,16.8264783 C-0.000156521739,13.458913 2.23888696,10.6180435 5.30827826,9.70317391 C3.56227826,8.89786957 2.34766957,7.13621739 2.34766957,5.08656522 C2.34766957,2.277 4.62506087,0.000391304348 7.43462609,0.000391304348 C10.2441913,0.000391304348 12.5215826,2.277 12.5215826,5.08656522 C12.5215826,7.13621739 11.3069739,8.89786957 9.56097391,9.70317391 C12.6303652,10.6180435 14.8694087,13.458913 14.8694087,16.8264783 C14.8694087,16.9579565 14.856887,17.0863043 14.8498435,17.217 L14.0672348,17.217 Z" id="user"></path>
                        </g>
                    </g>
                </g>
            </g>
        </g>
    </g>
</svg>